<?xml version="1.0" standalone="no"?>
<!DOCTYPE svg PUBLIC "-//W3C//DTD SVG 20010904//EN"
 "http://www.w3.org/TR/2001/REC-SVG-20010904/DTD/svg10.dtd">
<svg version="1.0" xmlns="http://www.w3.org/2000/svg"
 width="1080.000000pt" height="1080.000000pt" viewBox="0 0 1080.000000 1080.000000"
 preserveAspectRatio="xMidYMid meet">
<metadata>
Created by potrace 1.15, written by Peter Selinger 2001-2017
</metadata>
<g transform="translate(0.000000,1080.000000) scale(0.100000,-0.100000)"
fill="#000000" stroke="none">
<path d="M5413 8083 c-18 -3 -33 -8 -33 -12 0 -3 12 -22 28 -40 l27 -33 175
-5 c96 -2 186 -5 200 -6 14 0 44 0 67 1 l42 2 -14 33 c-11 24 -19 31 -37 29
-12 -1 -26 -9 -31 -17 -4 -8 -17 -15 -29 -15 -17 0 -18 2 -8 15 11 13 8 15
-13 15 -16 0 -27 -7 -30 -17 -3 -12 -5 -8 -6 9 -1 22 -6 27 -38 32 -21 4 -81
5 -133 4 -52 -1 -104 1 -115 3 -11 3 -35 4 -52 2z"/>
<path d="M5158 8072 c-22 -4 -24 -22 -3 -22 16 0 19 -9 7 -26 -11 -17 -150
-28 -168 -13 -12 10 -17 8 -29 -7 -8 -11 -14 -14 -15 -6 0 12 -41 17 -52 7
-12 -13 5 -55 23 -55 44 0 23 -19 -34 -29 -34 -7 -69 -14 -77 -16 -12 -4 -14
4 -12 39 3 37 7 43 23 39 10 -3 19 0 19 6 0 12 -14 14 -47 5 -13 -4 -23 -11
-23 -16 0 -10 -25 -38 -34 -38 -12 0 -6 28 7 33 6 2 9 7 6 11 -8 8 -109 -17
-109 -28 0 -5 16 -6 35 -3 19 3 35 2 35 -4 0 -5 -8 -9 -19 -9 -10 0 -21 -9
-24 -20 -4 -16 -14 -20 -45 -20 -24 0 -45 -6 -53 -16 -9 -11 -23 -14 -47 -10
-36 5 -78 -10 -101 -38 -17 -21 -45 -21 -37 -1 4 11 -1 15 -19 15 -14 0 -25
-4 -25 -10 0 -5 7 -10 15 -10 31 0 13 -20 -27 -30 -24 -6 -56 -17 -73 -24 -16
-8 -37 -16 -45 -19 -11 -4 -9 -7 8 -12 40 -13 30 -20 -113 -81 -44 -19 -125
-28 -125 -14 0 4 6 10 13 13 6 2 9 8 5 12 -12 13 -39 -16 -33 -36 4 -12 -1
-19 -14 -24 -10 -3 -22 -12 -24 -19 -3 -8 -22 -19 -41 -26 -20 -6 -36 -15 -36
-20 0 -5 -20 -19 -45 -31 -25 -12 -45 -30 -45 -38 0 -15 -60 -61 -79 -61 -6 0
-14 -6 -18 -13 -4 -7 -35 -34 -68 -60 -108 -83 -129 -104 -117 -111 7 -4 22 4
34 17 13 13 38 32 56 42 17 11 32 22 32 26 0 4 15 12 33 20 17 7 46 27 62 44
17 18 44 40 60 49 90 51 127 74 133 84 4 6 21 14 37 18 17 4 46 20 65 35 30
23 112 67 238 128 17 8 32 21 32 28 0 15 12 17 25 4 6 -6 29 -1 60 13 86 39
157 65 240 86 44 12 89 25 100 30 11 5 40 12 65 15 57 8 150 26 170 32 8 3 24
7 35 8 11 2 51 8 89 15 38 7 84 10 102 7 19 -3 36 -1 40 4 3 6 20 9 38 8 64
-4 98 1 93 14 -2 6 -9 11 -15 10 -6 -1 -61 -7 -124 -13 -62 -6 -135 -13 -163
-16 -37 -4 -46 -3 -35 5 8 6 29 11 47 11 17 0 35 5 39 11 4 7 21 9 42 5 20 -3
62 -3 94 1 55 6 59 8 66 37 7 26 14 32 50 39 23 5 40 12 37 17 -5 9 -161 10
-197 2z"/>
<path d="M6232 7943 l-23 -16 22 -23 c15 -16 34 -24 55 -24 18 0 36 -4 39 -10
3 -5 19 -10 36 -10 16 0 38 -9 49 -20 11 -11 29 -20 40 -20 10 0 31 -5 45 -12
14 -6 27 -9 29 -7 9 11 14 69 6 69 -6 0 -10 -6 -10 -13 0 -8 -7 -14 -15 -14
-8 0 -15 3 -15 7 0 3 -8 6 -17 7 -28 1 -126 41 -134 54 -4 7 -5 18 -3 24 3 7
-8 15 -27 19 -43 8 -51 7 -77 -11z"/>
<path d="M6882 7628 c9 -13 24 -25 34 -27 11 -2 34 -16 52 -32 18 -16 36 -29
40 -29 4 0 19 -10 35 -23 15 -12 45 -35 67 -52 23 -16 60 -46 84 -65 23 -19
61 -50 83 -68 30 -24 39 -38 36 -52 -4 -14 0 -20 11 -20 9 0 26 -10 39 -22 12
-13 25 -23 28 -23 4 0 31 -27 60 -59 30 -32 77 -82 104 -111 28 -28 61 -66 75
-83 14 -18 28 -32 32 -32 17 0 51 -44 60 -76 5 -19 22 -48 38 -66 17 -18 30
-36 30 -41 0 -5 13 -27 29 -50 40 -59 91 -146 91 -156 0 -5 7 -11 15 -15 8 -3
15 -12 15 -20 0 -9 9 -30 20 -48 11 -18 20 -40 20 -49 0 -9 6 -22 14 -28 7 -6
26 -46 41 -89 37 -102 42 -108 89 -88 36 15 41 36 10 36 -17 0 -19 17 -2 22
19 7 -2 28 -28 28 -13 0 -24 5 -24 10 0 6 6 10 14 10 11 0 12 7 7 28 -4 15
-14 27 -21 27 -20 0 -56 65 -42 74 9 5 9 15 0 39 -15 38 -33 43 -24 7 6 -25 0
-31 -19 -17 -16 11 -37 81 -29 94 5 7 2 9 -8 5 -12 -4 -18 3 -23 29 -3 19 -4
43 -1 52 8 26 -19 55 -43 47 -24 -7 -29 10 -6 19 8 3 12 12 9 21 -6 14 -8 13
-20 -2 -13 -17 -14 -17 -20 5 -3 12 -12 22 -19 22 -25 0 -55 51 -55 94 0 63
-60 141 -116 152 -37 7 -67 32 -89 74 -8 16 -24 34 -35 40 -11 6 -20 20 -20
32 0 11 -13 36 -30 55 -16 18 -30 41 -30 49 0 18 -119 136 -175 173 -22 14
-45 32 -50 39 -6 7 -18 10 -28 6 -22 -8 -22 -22 1 -26 10 -2 13 -6 6 -10 -12
-8 -54 26 -54 43 0 6 7 9 15 5 12 -4 13 -2 2 15 -11 18 -13 18 -25 2 -8 -11
-16 -14 -20 -8 -4 6 -24 19 -44 29 -22 11 -38 27 -38 36 0 10 -10 20 -24 24
-14 3 -30 19 -38 36 -14 33 -29 38 -48 15 -12 -14 -15 -14 -30 0 -27 24 -45
20 -28 -7z"/>
<path d="M3307 7093 c-76 -75 -159 -166 -184 -202 -26 -36 -51 -70 -56 -76
-35 -42 -93 -128 -123 -181 -20 -35 -41 -67 -47 -71 -12 -8 -47 -73 -129 -236
-21 -43 -36 -83 -32 -89 4 -6 17 8 31 35 21 42 32 52 56 48 4 0 7 19 7 43 0
25 5 48 10 51 6 3 10 14 10 23 0 10 9 23 19 29 17 10 18 9 13 -9 -3 -14 -1
-19 6 -14 7 4 12 12 12 18 0 6 7 20 17 30 19 21 10 37 -11 19 -12 -10 -14 -9
-9 8 3 12 13 21 22 21 10 0 24 11 31 25 7 14 17 25 21 25 4 0 10 11 13 25 4
14 11 25 16 25 6 0 10 7 10 15 0 9 8 28 18 43 11 15 31 46 47 70 15 23 32 42
36 42 5 0 9 9 9 19 0 11 5 23 11 27 9 5 10 -1 5 -22 l-7 -29 23 25 c13 14 29
38 36 53 16 37 91 137 120 160 12 10 28 25 36 33 9 8 22 11 33 7 16 -6 16 -5
5 10 -14 16 -9 37 9 37 15 0 79 70 79 86 0 32 -32 7 -163 -123z"/>
<path d="M3787 6983 c-4 -3 -7 -316 -7 -695 l0 -688 161 0 c92 0 158 4 155 9
-3 5 -7 127 -7 272 l-2 263 152 -3 151 -3 0 154 0 153 -151 0 -152 0 1 119 0
119 171 -2 171 -2 0 155 0 156 -318 0 c-175 0 -322 -3 -325 -7z"/>
<path d="M4590 6295 l0 -694 321 0 c176 0 324 -3 330 -6 5 -4 9 57 9 157 l0
163 -180 -3 -180 -3 0 116 c0 113 0 115 23 115 12 0 76 1 142 2 66 1 126 -1
133 -6 9 -5 12 30 12 156 l0 163 -155 -3 -155 -3 0 116 0 115 165 0 165 0 0
155 0 155 -315 0 -315 0 0 -695z"/>
<path d="M5665 6972 c-33 -10 -78 -28 -100 -39 -55 -29 -127 -107 -161 -173
-27 -51 -29 -63 -29 -175 0 -109 2 -125 26 -175 48 -102 115 -158 323 -271 75
-41 102 -61 111 -83 16 -37 4 -81 -30 -116 -45 -45 -157 -30 -335 44 -13 5
-24 -20 -58 -127 -23 -73 -42 -140 -42 -149 0 -9 28 -28 72 -48 173 -77 354
-80 493 -8 110 57 185 168 206 307 30 203 -49 339 -260 444 -51 26 -99 47
-107 47 -7 0 -35 20 -60 45 -45 43 -47 46 -41 90 7 46 25 73 64 94 31 16 151
14 208 -4 27 -8 50 -13 50 -12 17 32 92 264 87 269 -4 3 -38 16 -77 28 -100
30 -260 36 -340 12z"/>
<path d="M6230 6840 l0 -151 130 2 131 1 -1 -545 0 -546 160 0 c88 0 158 4
155 8 -2 5 -5 249 -5 542 l-1 534 128 5 128 5 0 145 0 145 -412 3 -413 2 0
-150z"/>
<path d="M2696 6178 c-11 -24 -30 -70 -42 -103 -12 -33 -34 -91 -50 -130 -15
-38 -28 -86 -29 -105 -2 -43 -13 -87 -31 -120 -27 -51 -77 -326 -94 -515 -23
-259 -6 -457 80 -902 11 -55 109 -349 142 -423 39 -87 88 -186 122 -245 20
-33 36 -66 36 -73 0 -8 9 -26 20 -40 11 -15 59 -85 107 -157 87 -131 176 -248
206 -274 31 -25 20 14 -13 49 -16 18 -30 35 -30 40 0 4 -10 15 -21 26 -12 10
-28 34 -36 52 -7 17 -18 32 -23 32 -12 0 -40 65 -40 91 0 11 -6 19 -14 19 -13
0 -96 103 -96 119 0 13 -22 53 -52 91 -15 19 -41 71 -57 115 -17 44 -38 93
-46 108 -8 16 -15 37 -15 48 0 11 -11 37 -25 59 -14 22 -25 48 -25 57 0 10 -8
34 -18 53 -29 55 -63 170 -78 265 -10 67 -35 213 -45 265 -22 115 -26 155 -17
173 5 10 5 54 -1 111 -5 51 -7 144 -4 205 4 69 2 116 -5 123 -5 7 -8 33 -5 58
2 25 6 75 8 112 2 37 11 79 19 95 l16 28 -1 -25 c-2 -42 0 -50 15 -50 25 0 38
-101 15 -125 -17 -17 -9 -26 19 -23 23 3 27 7 24 33 -1 17 -2 37 -3 45 -1 22
19 162 25 180 3 8 8 42 11 75 11 128 72 405 115 522 6 18 10 40 7 50 -4 16 -5
16 -11 -2 -4 -11 -14 -33 -21 -50 -8 -16 -22 -55 -31 -85 -9 -30 -20 -59 -24
-65 -4 -5 -8 -24 -8 -42 0 -17 -6 -41 -12 -52 -6 -12 -10 -27 -9 -34 1 -6 -3
-25 -10 -41 -6 -16 -10 -35 -7 -43 8 -21 -12 -63 -30 -63 -12 0 -15 6 -11 28
3 15 12 66 20 113 13 80 46 197 68 244 5 11 15 40 23 65 7 25 17 53 21 63 16
37 -11 14 -29 -25z"/>
<path d="M8118 6182 c-22 -4 -25 -74 -4 -91 8 -6 16 -26 19 -44 9 -51 31 -123
44 -138 6 -8 13 -34 16 -59 3 -25 10 -65 17 -90 6 -25 16 -79 21 -120 5 -41
14 -84 19 -95 4 -11 11 -36 14 -55 3 -19 10 -55 15 -80 6 -25 10 -84 11 -132
0 -72 -3 -88 -15 -88 -10 0 -15 -10 -15 -30 0 -19 5 -30 14 -30 8 0 13 -7 11
-17 -4 -18 -16 -215 -20 -323 -1 -30 -5 -67 -10 -82 -6 -24 -3 -29 16 -37 33
-13 44 4 58 94 9 53 17 75 27 75 17 0 20 100 4 130 -7 13 -7 21 0 25 6 4 10
62 8 152 l-2 146 -32 19 c-27 16 -32 25 -32 57 0 22 6 47 13 57 9 12 14 14 15
6 0 -7 5 -10 11 -6 8 5 8 8 0 14 -8 4 -9 14 -3 31 14 35 -6 221 -28 274 -5 11
-11 38 -14 60 -10 68 -62 215 -86 240 -14 15 -25 41 -27 67 -2 24 -9 48 -14
53 -7 7 -8 1 -4 -17 5 -18 3 -28 -4 -28 -6 0 -12 9 -12 20 -3 45 -6 48 -31 42z"/>
<path d="M4038 5406 c-140 -41 -233 -165 -246 -328 l-5 -68 147 0 c145 0 146
0 146 23 0 29 39 75 70 82 33 8 80 -27 80 -60 0 -13 -35 -81 -79 -152 -43 -70
-142 -235 -220 -366 l-141 -237 0 -149 c0 -110 -3 -151 -12 -154 -7 -3 167 -6
387 -6 l400 -1 -3 150 -3 150 -220 0 c-120 0 -219 2 -219 4 0 5 377 615 402
650 18 26 20 39 15 120 -3 50 -10 108 -17 128 -26 90 -118 181 -208 209 -59
17 -220 20 -274 5z"/>
<path d="M4970 5402 c-30 -10 -68 -26 -85 -34 -42 -23 -109 -95 -132 -143 -42
-86 -44 -112 -41 -555 l3 -425 29 -63 c33 -71 105 -144 172 -172 107 -46 260
-50 370 -9 76 29 154 103 190 181 l29 63 3 437 c3 419 2 439 -18 498 -38 112
-84 162 -195 211 -71 31 -247 37 -325 11z m213 -310 c16 -14 17 -46 17 -394 0
-237 -4 -386 -10 -398 -20 -38 -112 -38 -150 0 -19 19 -20 35 -20 393 1 299 3
376 14 390 29 37 111 43 149 9z"/>
<path d="M6595 5410 c-128 -19 -228 -107 -275 -244 -17 -51 -20 -84 -20 -246
0 -226 9 -260 85 -336 75 -75 142 -98 263 -90 l92 5 0 -83 c0 -101 -4 -112
-42 -132 -39 -20 -79 -2 -93 44 l-9 32 -140 0 -139 0 6 -74 c12 -135 66 -220
177 -274 50 -25 65 -27 170 -27 110 0 118 1 182 33 74 36 129 92 167 168 32
64 40 164 40 539 1 330 -7 401 -49 486 -53 104 -127 163 -247 194 -61 16 -89
17 -168 5z m123 -326 c21 -14 22 -22 22 -145 0 -72 -5 -139 -10 -150 -14 -24
-76 -26 -102 -2 -16 14 -18 33 -18 141 0 115 2 128 22 149 25 27 54 29 86 7z"/>
<path d="M5640 5243 l5 -158 70 -2 c39 -1 76 -2 83 -2 9 -1 12 -116 12 -540 0
-422 -3 -540 -12 -544 -7 -3 68 -6 167 -6 99 0 174 3 167 7 -10 7 -12 150 -10
705 l3 697 -245 0 -245 0 5 -157z"/>
<path d="M2614 4667 c-17 -51 -5 -201 24 -309 16 -59 34 -114 41 -122 9 -11
10 -16 2 -16 -7 0 -9 -10 -5 -27 14 -59 49 -73 42 -17 l-4 35 27 -29 c15 -16
36 -47 48 -70 18 -35 20 -48 11 -84 -13 -58 -12 -68 5 -68 8 0 17 -11 20 -25
3 -14 7 -36 10 -50 3 -14 12 -25 20 -25 8 0 17 -11 21 -25 3 -14 10 -25 15
-25 5 0 6 -13 3 -30 -7 -31 3 -39 24 -18 16 16 15 47 -3 78 -37 65 -64 130
-76 180 -7 30 -17 58 -21 61 -4 3 -10 18 -12 35 -5 38 -16 64 -27 64 -5 0 -9
12 -9 26 0 17 -6 28 -20 31 -11 3 -20 9 -20 14 0 5 -7 9 -15 9 -17 0 -21 40
-5 56 16 16 1 124 -16 124 -8 0 -14 7 -14 15 0 8 4 15 9 15 11 0 -1 46 -20 81
-8 13 -14 35 -15 49 -2 65 -5 78 -18 83 -10 4 -18 -2 -22 -16z"/>
<path d="M8316 4525 c-4 -19 -18 -69 -31 -111 -13 -41 -22 -81 -19 -89 3 -7 1
-16 -5 -20 -6 -3 -11 -17 -11 -31 0 -13 -4 -24 -9 -24 -5 0 -12 -20 -15 -45
-4 -25 -11 -45 -17 -45 -5 0 -9 -15 -9 -34 0 -22 -25 -87 -70 -180 -38 -79
-70 -151 -70 -159 0 -22 -36 -98 -64 -136 -15 -19 -26 -41 -26 -48 0 -8 -7
-16 -15 -20 -9 -3 -27 -27 -40 -54 -14 -26 -29 -50 -35 -54 -5 -3 -10 -15 -10
-25 0 -10 -9 -25 -19 -32 -11 -8 -23 -26 -26 -41 -4 -15 -11 -27 -16 -27 -5 0
-15 -16 -23 -35 -8 -19 -20 -35 -26 -35 -18 0 -38 -25 -66 -80 -18 -37 -30
-50 -41 -46 -8 4 -25 -2 -37 -13 -71 -64 -90 -83 -105 -110 -17 -31 -165 -161
-183 -161 -6 0 -8 -11 -6 -25 3 -16 1 -25 -7 -25 -28 0 -145 -77 -145 -95 0
-10 -54 -54 -66 -55 -7 0 -15 -7 -18 -15 -3 -9 -18 -20 -33 -26 -16 -5 -39
-25 -53 -43 -24 -32 -68 -56 -102 -56 -9 0 -18 -6 -21 -14 -5 -13 -44 -35 -89
-50 -10 -3 -18 -12 -18 -21 0 -9 -9 -15 -22 -15 -11 0 -36 -11 -54 -25 -18
-14 -40 -25 -49 -25 -15 0 -71 -33 -85 -50 -3 -3 -27 -7 -55 -9 -35 -2 -58
-10 -79 -27 -16 -14 -35 -23 -42 -20 -8 3 -14 -1 -14 -9 0 -19 9 -19 80 5 94
32 160 59 243 101 43 21 84 39 92 39 8 0 15 4 15 9 0 4 28 23 63 40 88 45 221
131 260 169 18 18 38 32 43 32 19 0 124 81 124 96 0 7 5 14 11 14 37 0 312
262 407 389 83 109 99 133 118 166 9 17 34 53 56 82 21 29 38 59 38 66 0 8 7
20 16 28 8 7 27 36 41 63 14 28 34 62 44 75 11 13 19 30 19 37 0 7 27 69 61
136 59 120 99 219 99 246 0 7 9 32 20 55 21 43 86 279 94 339 2 18 7 50 11 71
4 20 5 37 2 37 -3 0 -8 -16 -11 -35z"/>
<path d="M8235 4502 c3 -18 2 -33 -4 -37 -6 -3 -11 -29 -11 -56 0 -47 -2 -50
-29 -55 -19 -4 -28 -11 -25 -19 3 -7 1 -16 -5 -19 -6 -4 -8 -13 -4 -21 8 -22
-16 -75 -32 -69 -13 5 -46 -58 -125 -236 -23 -52 -48 -100 -56 -106 -8 -6 -14
-21 -14 -32 0 -12 -13 -36 -28 -54 -16 -18 -37 -49 -47 -68 -10 -19 -21 -40
-24 -46 -3 -6 -25 -39 -48 -72 -24 -34 -43 -67 -43 -75 0 -8 -16 -27 -35 -41
-19 -15 -35 -34 -35 -42 0 -7 -4 -14 -9 -14 -5 0 -31 -30 -57 -67 -44 -63
-232 -255 -353 -363 -28 -25 -51 -49 -51 -55 -1 -5 -15 -19 -33 -31 -25 -16
-31 -26 -29 -48 2 -18 -3 -33 -15 -42 -24 -18 -33 -17 -33 1 0 19 -13 19 -50
0 -23 -12 -30 -22 -30 -45 0 -17 -4 -30 -10 -30 -18 0 -11 -38 8 -42 12 -3 0
-15 -41 -42 -52 -33 -60 -36 -70 -22 -9 11 -16 13 -27 6 -13 -9 -13 -12 3 -24
16 -13 10 -18 -70 -62 -125 -69 -298 -149 -438 -201 -119 -45 -160 -57 -325
-93 -47 -11 -110 -26 -140 -34 -30 -8 -111 -20 -180 -26 -149 -14 -170 -17
-170 -30 0 -20 86 -11 365 36 87 15 268 61 350 89 312 109 515 208 770 378
139 93 306 231 304 251 -3 25 2 36 16 36 8 0 15 6 15 13 0 8 4 7 10 -3 5 -8
10 -12 11 -7 6 31 20 55 35 61 18 7 18 1 -2 -19 -20 -20 -10 -33 14 -18 9 5
17 22 17 37 1 19 10 32 33 46 18 11 32 24 32 30 0 6 9 20 20 32 11 12 20 28
20 36 0 8 6 12 14 9 7 -3 23 7 35 24 12 16 28 29 36 29 8 0 15 8 15 18 0 18
62 99 87 115 7 4 13 17 13 27 0 11 8 28 18 38 9 10 34 43 56 74 21 31 49 67
62 79 13 12 24 30 24 39 0 9 12 40 26 70 20 41 23 55 13 61 -8 4 -10 12 -5 16
4 4 14 0 21 -11 12 -16 16 -17 29 -4 21 22 116 217 116 239 0 11 6 22 14 25 8
3 17 25 21 50 3 24 19 75 35 113 34 83 50 153 56 248 4 48 2 73 -6 78 -9 5
-10 -1 -5 -23z"/>
<path d="M4592 3698 c3 -29 7 -33 36 -36 l32 -3 0 -145 0 -144 35 0 35 0 1
130 c1 72 2 136 3 143 1 8 23 13 63 15 l62 3 3 -133 3 -133 37 -18 c27 -14 45
-16 70 -9 28 7 33 13 36 41 3 29 1 32 -17 26 -12 -3 -30 -3 -41 0 -19 6 -20
13 -18 113 l3 107 33 3 c29 3 32 6 32 38 l0 34 -206 0 -205 0 3 -32z"/>
<path d="M5074 3716 c-12 -31 1 -51 34 -54 l32 -3 0 -145 0 -144 40 0 40 0 0
145 0 145 60 0 60 0 0 -121 c0 -66 5 -129 10 -139 12 -23 64 -39 108 -32 29 4
32 8 32 37 0 31 -2 33 -32 31 l-33 -1 -3 113 -3 112 30 0 c24 0 32 5 37 24 3
14 3 30 -1 35 -4 7 -76 11 -206 11 -165 0 -201 -3 -205 -14z"/>
<path d="M5555 3720 c-4 -6 -3 -116 1 -245 l7 -235 33 0 34 0 0 66 0 66 35 -6
c38 -7 125 23 125 43 0 6 5 11 10 11 6 0 10 -12 10 -26 0 -23 3 -25 38 -22
l37 3 0 175 0 175 -37 3 -38 3 0 -115 c0 -107 -2 -116 -25 -144 -43 -51 -122
-54 -144 -6 -6 14 -11 76 -11 144 l0 120 -34 0 c-19 0 -38 -5 -41 -10z"/>
<path d="M5960 3549 l0 -180 38 3 37 3 3 142 3 142 97 3 97 3 3 33 3 32 -140
0 -141 0 0 -181z"/>
<path d="M3137 3453 c-14 -13 -7 -53 8 -53 21 0 31 -30 14 -41 -18 -11 6 -53
73 -128 26 -30 48 -59 48 -63 0 -4 5 -8 10 -8 6 0 39 -28 73 -62 63 -62 89
-85 214 -188 96 -79 269 -200 286 -200 4 0 24 -12 42 -26 19 -14 41 -24 50
-22 14 2 13 7 -7 26 -12 13 -36 34 -53 47 -25 21 -28 26 -15 34 20 13 17 16
-136 119 -84 57 -137 100 -153 124 -26 40 -41 41 -41 4 0 -16 12 -32 35 -47
34 -24 44 -39 25 -39 -5 0 -10 5 -10 10 0 6 -9 10 -19 10 -27 0 -115 86 -107
105 7 18 37 20 54 3 9 -9 12 -9 12 -1 0 11 -29 34 -75 59 -11 6 -21 21 -23 33
-4 22 -17 28 -27 11 -3 -5 2 -21 11 -35 13 -20 13 -25 3 -25 -20 0 -139 109
-139 126 0 8 -11 26 -25 40 -36 36 -33 58 6 50 27 -5 30 -4 19 9 -7 8 -22 15
-34 15 -12 0 -29 12 -41 30 -11 16 -23 30 -27 30 -5 0 -8 6 -8 13 0 18 -34 49
-43 40z"/>
<path d="M3206 3067 c-17 -13 -15 -18 35 -73 89 -98 293 -284 312 -284 3 0 23
-15 44 -34 50 -45 117 -92 234 -164 180 -110 459 -243 459 -218 0 12 -36 39
-57 42 -7 1 -24 12 -39 23 -15 12 -34 21 -43 21 -9 0 -27 9 -41 20 -14 11 -33
20 -43 20 -9 0 -27 11 -38 24 -12 14 -28 22 -35 19 -8 -3 -21 0 -29 7 -8 7
-15 9 -16 4 0 -5 -4 1 -9 14 -6 14 -18 22 -34 22 -16 0 -32 9 -42 25 -9 14
-19 23 -22 20 -3 -3 -11 4 -19 15 -8 11 -20 17 -28 14 -8 -4 -15 -1 -15 6 0 7
-8 9 -19 5 -11 -3 -22 -1 -26 5 -4 6 -18 15 -31 20 -15 6 -22 15 -18 25 4 9 0
16 -7 17 -8 0 -19 2 -26 2 -6 1 -22 13 -35 27 -14 15 -36 34 -51 44 -20 13
-25 23 -21 40 4 15 0 24 -10 28 -9 4 -16 2 -16 -3 0 -5 -7 -7 -15 -4 -8 4 -15
12 -15 20 0 8 -7 14 -15 14 -8 0 -15 9 -15 19 0 13 -9 21 -30 26 -18 4 -36 17
-44 33 -13 25 -148 172 -158 172 -2 0 -12 -6 -22 -13z"/>
<path d="M3935 2750 c-7 -11 40 -44 94 -66 33 -13 46 -25 58 -55 17 -42 33
-51 33 -18 0 34 25 16 26 -19 1 -18 3 -34 5 -35 20 -16 81 -36 93 -31 9 3 23
0 32 -7 20 -16 78 -39 119 -46 16 -3 35 -12 43 -19 10 -11 17 -11 32 -1 11 6
20 15 20 20 0 4 4 6 9 3 5 -3 7 -15 4 -26 -3 -11 -1 -20 5 -20 6 0 17 -3 26
-6 12 -4 16 0 16 15 0 26 2 26 70 2 39 -14 54 -24 52 -35 -3 -17 24 -23 30 -7
2 6 25 5 58 -1 56 -10 84 -24 75 -38 -3 -4 1 -13 9 -19 11 -9 15 -7 20 11 6
23 7 23 18 3 17 -30 17 -30 34 -7 8 12 24 22 34 22 29 0 70 -22 70 -37 0 -18
26 -17 34 2 9 24 26 17 26 -10 0 -29 30 -35 51 -9 8 10 22 14 41 10 15 -3 30
-1 33 3 3 5 14 7 25 4 11 -3 20 -1 20 4 0 10 -83 27 -180 38 -126 14 -476 100
-555 135 -11 5 -58 23 -105 39 -85 29 -184 71 -270 116 -25 12 -56 26 -70 30
-14 4 -32 13 -40 20 -24 21 -89 45 -95 35z"/>
</g>
</svg>
