<?xml version="1.0" encoding="utf-8"?>
<!-- Generator: Adobe Illustrator 22.0.0, SVG Export Plug-In . SVG Version: 6.00 Build 0)  -->
<svg version="1.1" id="Layer_1" xmlns="http://www.w3.org/2000/svg" xmlns:xlink="http://www.w3.org/1999/xlink" x="0px" y="0px"
	 viewBox="0 0 1080 1080" style="enable-background:new 0 0 1080 1080;" xml:space="preserve">
<style type="text/css">
	.st0{fill:#FFFFFF;}
</style>
<g transform="translate(0.000000,1080.000000) scale(0.100000,-0.100000)">
	<path class="st0" d="M5413,8083c-18-3-33-8-33-12c0-3,12-22,28-40l27-33l175-5c96-2,186-5,200-6c14,0,44,0,67,1l42,2l-14,33
		c-11,24-19,31-37,29c-12-1-26-9-31-17c-4-8-17-15-29-15c-17,0-18,2-8,15c11,13,8,15-13,15c-16,0-27-7-30-17c-3-12-5-8-6,9
		c-1,22-6,27-38,32c-21,4-81,5-133,4s-104,1-115,3C5454,8084,5430,8085,5413,8083z"/>
	<path class="st0" d="M5158,8072c-22-4-24-22-3-22c16,0,19-9,7-26c-11-17-150-28-168-13c-12,10-17,8-29-7c-8-11-14-14-15-6
		c0,12-41,17-52,7c-12-13,5-55,23-55c44,0,23-19-34-29c-34-7-69-14-77-16c-12-4-14,4-12,39c3,37,7,43,23,39c10-3,19,0,19,6
		c0,12-14,14-47,5c-13-4-23-11-23-16c0-10-25-38-34-38c-12,0-6,28,7,33c6,2,9,7,6,11c-8,8-109-17-109-28c0-5,16-6,35-3s35,2,35-4
		c0-5-8-9-19-9c-10,0-21-9-24-20c-4-16-14-20-45-20c-24,0-45-6-53-16c-9-11-23-14-47-10c-36,5-78-10-101-38c-17-21-45-21-37-1
		c4,11-1,15-19,15c-14,0-25-4-25-10c0-5,7-10,15-10c31,0,13-20-27-30c-24-6-56-17-73-24c-16-8-37-16-45-19c-11-4-9-7,8-12
		c40-13,30-20-113-81c-44-19-125-28-125-14c0,4,6,10,13,13c6,2,9,8,5,12c-12,13-39-16-33-36c4-12-1-19-14-24c-10-3-22-12-24-19
		c-3-8-22-19-41-26c-20-6-36-15-36-20s-20-19-45-31s-45-30-45-38c0-15-60-61-79-61c-6,0-14-6-18-13s-35-34-68-60
		c-108-83-129-104-117-111c7-4,22,4,34,17c13,13,38,32,56,42c17,11,32,22,32,26s15,12,33,20c17,7,46,27,62,44c17,18,44,40,60,49
		c90,51,127,74,133,84c4,6,21,14,37,18c17,4,46,20,65,35c30,23,112,67,238,128c17,8,32,21,32,28c0,15,12,17,25,4c6-6,29-1,60,13
		c86,39,157,65,240,86c44,12,89,25,100,30s40,12,65,15c57,8,150,26,170,32c8,3,24,7,35,8c11,2,51,8,89,15s84,10,102,7
		c19-3,36-1,40,4c3,6,20,9,38,8c64-4,98,1,93,14c-2,6-9,11-15,10s-61-7-124-13c-62-6-135-13-163-16c-37-4-46-3-35,5c8,6,29,11,47,11
		c17,0,35,5,39,11c4,7,21,9,42,5c20-3,62-3,94,1c55,6,59,8,66,37c7,26,14,32,50,39c23,5,40,12,37,17C5350,8079,5194,8080,5158,8072z
		"/>
	<path class="st0" d="M6232,7943l-23-16l22-23c15-16,34-24,55-24c18,0,36-4,39-10c3-5,19-10,36-10c16,0,38-9,49-20s29-20,40-20
		c10,0,31-5,45-12c14-6,27-9,29-7c9,11,14,69,6,69c-6,0-10-6-10-13c0-8-7-14-15-14s-15,3-15,7c0,3-8,6-17,7c-28,1-126,41-134,54
		c-4,7-5,18-3,24c3,7-8,15-27,19C6266,7962,6258,7961,6232,7943z"/>
	<path class="st0" d="M6882,7628c9-13,24-25,34-27c11-2,34-16,52-32s36-29,40-29s19-10,35-23c15-12,45-35,67-52c23-16,60-46,84-65
		c23-19,61-50,83-68c30-24,39-38,36-52c-4-14,0-20,11-20c9,0,26-10,39-22c12-13,25-23,28-23c4,0,31-27,60-59c30-32,77-82,104-111
		c28-28,61-66,75-83c14-18,28-32,32-32c17,0,51-44,60-76c5-19,22-48,38-66c17-18,30-36,30-41s13-27,29-50c40-59,91-146,91-156
		c0-5,7-11,15-15c8-3,15-12,15-20c0-9,9-30,20-48s20-40,20-49s6-22,14-28c7-6,26-46,41-89c37-102,42-108,89-88c36,15,41,36,10,36
		c-17,0-19,17-2,22c19,7-2,28-28,28c-13,0-24,5-24,10c0,6,6,10,14,10c11,0,12,7,7,28c-4,15-14,27-21,27c-20,0-56,65-42,74
		c9,5,9,15,0,39c-15,38-33,43-24,7c6-25,0-31-19-17c-16,11-37,81-29,94c5,7,2,9-8,5c-12-4-18,3-23,29c-3,19-4,43-1,52
		c8,26-19,55-43,47c-24-7-29,10-6,19c8,3,12,12,9,21c-6,14-8,13-20-2c-13-17-14-17-20,5c-3,12-12,22-19,22c-25,0-55,51-55,94
		c0,63-60,141-116,152c-37,7-67,32-89,74c-8,16-24,34-35,40s-20,20-20,32c0,11-13,36-30,55c-16,18-30,41-30,49c0,18-119,136-175,173
		c-22,14-45,32-50,39c-6,7-18,10-28,6c-22-8-22-22,1-26c10-2,13-6,6-10c-12-8-54,26-54,43c0,6,7,9,15,5c12-4,13-2,2,15
		c-11,18-13,18-25,2c-8-11-16-14-20-8s-24,19-44,29c-22,11-38,27-38,36c0,10-10,20-24,24c-14,3-30,19-38,36c-14,33-29,38-48,15
		c-12-14-15-14-30,0C6883,7659,6865,7655,6882,7628z"/>
	<path class="st0" d="M3307,7093c-76-75-159-166-184-202c-26-36-51-70-56-76c-35-42-93-128-123-181c-20-35-41-67-47-71
		c-12-8-47-73-129-236c-21-43-36-83-32-89s17,8,31,35c21,42,32,52,56,48c4,0,7,19,7,43c0,25,5,48,10,51c6,3,10,14,10,23
		c0,10,9,23,19,29c17,10,18,9,13-9c-3-14-1-19,6-14c7,4,12,12,12,18s7,20,17,30c19,21,10,37-11,19c-12-10-14-9-9,8c3,12,13,21,22,21
		c10,0,24,11,31,25s17,25,21,25s10,11,13,25c4,14,11,25,16,25c6,0,10,7,10,15c0,9,8,28,18,43c11,15,31,46,47,70c15,23,32,42,36,42
		c5,0,9,9,9,19c0,11,5,23,11,27c9,5,10-1,5-22l-7-29l23,25c13,14,29,38,36,53c16,37,91,137,120,160c12,10,28,25,36,33
		c9,8,22,11,33,7c16-6,16-5,5,10c-14,16-9,37,9,37c15,0,79,70,79,86C3470,7248,3438,7223,3307,7093z"/>
	<path class="st0" d="M3787,6983c-4-3-7-316-7-695v-688h161c92,0,158,4,155,9s-7,127-7,272l-2,263l152-3l151-3v154v153h-151h-152
		l1,119v119l171-2l171-2v155v156h-318C3937,6990,3790,6987,3787,6983z"/>
	<path class="st0" d="M4590,6295v-694h321c176,0,324-3,330-6c5-4,9,57,9,157v163l-180-3l-180-3v116c0,113,0,115,23,115
		c12,0,76,1,142,2s126-1,133-6c9-5,12,30,12,156v163l-155-3l-155-3v116v115h165h165v155v155h-315h-315V6295z"/>
	<path class="st0" d="M5665,6972c-33-10-78-28-100-39c-55-29-127-107-161-173c-27-51-29-63-29-175c0-109,2-125,26-175
		c48-102,115-158,323-271c75-41,102-61,111-83c16-37,4-81-30-116c-45-45-157-30-335,44c-13,5-24-20-58-127c-23-73-42-140-42-149
		s28-28,72-48c173-77,354-80,493-8c110,57,185,168,206,307c30,203-49,339-260,444c-51,26-99,47-107,47c-7,0-35,20-60,45
		c-45,43-47,46-41,90c7,46,25,73,64,94c31,16,151,14,208-4c27-8,50-13,50-12c17,32,92,264,87,269c-4,3-38,16-77,28
		C5905,6990,5745,6996,5665,6972z"/>
	<path class="st0" d="M6230,6840v-151l130,2l131,1l-1-545v-546h160c88,0,158,4,155,8c-2,5-5,249-5,542l-1,534l128,5l128,5v145v145
		l-412,3l-413,2V6840z"/>
	<path class="st0" d="M2696,6178c-11-24-30-70-42-103s-34-91-50-130c-15-38-28-86-29-105c-2-43-13-87-31-120c-27-51-77-326-94-515
		c-23-259-6-457,80-902c11-55,109-349,142-423c39-87,88-186,122-245c20-33,36-66,36-73c0-8,9-26,20-40c11-15,59-85,107-157
		c87-131,176-248,206-274c31-25,20,14-13,49c-16,18-30,35-30,40c0,4-10,15-21,26c-12,10-28,34-36,52c-7,17-18,32-23,32
		c-12,0-40,65-40,91c0,11-6,19-14,19c-13,0-96,103-96,119c0,13-22,53-52,91c-15,19-41,71-57,115c-17,44-38,93-46,108
		c-8,16-15,37-15,48s-11,37-25,59s-25,48-25,57c0,10-8,34-18,53c-29,55-63,170-78,265c-10,67-35,213-45,265c-22,115-26,155-17,173
		c5,10,5,54-1,111c-5,51-7,144-4,205c4,69,2,116-5,123c-5,7-8,33-5,58c2,25,6,75,8,112s11,79,19,95l16,28l-1-25c-2-42,0-50,15-50
		c25,0,38-101,15-125c-17-17-9-26,19-23c23,3,27,7,24,33c-1,17-2,37-3,45c-1,22,19,162,25,180c3,8,8,42,11,75c11,128,72,405,115,522
		c6,18,10,40,7,50c-4,16-5,16-11-2c-4-11-14-33-21-50c-8-16-22-55-31-85s-20-59-24-65c-4-5-8-24-8-42c0-17-6-41-12-52
		c-6-12-10-27-9-34c1-6-3-25-10-41c-6-16-10-35-7-43c8-21-12-63-30-63c-12,0-15,6-11,28c3,15,12,66,20,113c13,80,46,197,68,244
		c5,11,15,40,23,65c7,25,17,53,21,63C2741,6240,2714,6217,2696,6178z"/>
	<path class="st0" d="M8118,6182c-22-4-25-74-4-91c8-6,16-26,19-44c9-51,31-123,44-138c6-8,13-34,16-59s10-65,17-90
		c6-25,16-79,21-120s14-84,19-95c4-11,11-36,14-55s10-55,15-80c6-25,10-84,11-132c0-72-3-88-15-88c-10,0-15-10-15-30
		c0-19,5-30,14-30c8,0,13-7,11-17c-4-18-16-215-20-323c-1-30-5-67-10-82c-6-24-3-29,16-37c33-13,44,4,58,94c9,53,17,75,27,75
		c17,0,20,100,4,130c-7,13-7,21,0,25c6,4,10,62,8,152l-2,146l-32,19c-27,16-32,25-32,57c0,22,6,47,13,57c9,12,14,14,15,6
		c0-7,5-10,11-6c8,5,8,8,0,14c-8,4-9,14-3,31c14,35-6,221-28,274c-5,11-11,38-14,60c-10,68-62,215-86,240c-14,15-25,41-27,67
		c-2,24-9,48-14,53c-7,7-8,1-4-17c5-18,3-28-4-28c-6,0-12,9-12,20C8146,6185,8143,6188,8118,6182z"/>
	<path class="st0" d="M4038,5406c-140-41-233-165-246-328l-5-68h147c145,0,146,0,146,23c0,29,39,75,70,82c33,8,80-27,80-60
		c0-13-35-81-79-152c-43-70-142-235-220-366l-141-237v-149c0-110-3-151-12-154c-7-3,167-6,387-6l400-1l-3,150l-3,150h-220
		c-120,0-219,2-219,4c0,5,377,615,402,650c18,26,20,39,15,120c-3,50-10,108-17,128c-26,90-118,181-208,209
		C4253,5418,4092,5421,4038,5406z"/>
	<path class="st0" d="M4970,5402c-30-10-68-26-85-34c-42-23-109-95-132-143c-42-86-44-112-41-555l3-425l29-63c33-71,105-144,172-172
		c107-46,260-50,370-9c76,29,154,103,190,181l29,63l3,437c3,419,2,439-18,498c-38,112-84,162-195,211C5224,5422,5048,5428,4970,5402
		z M5183,5092c16-14,17-46,17-394c0-237-4-386-10-398c-20-38-112-38-150,0c-19,19-20,35-20,393c1,299,3,376,14,390
		C5063,5120,5145,5126,5183,5092z"/>
	<path class="st0" d="M6595,5410c-128-19-228-107-275-244c-17-51-20-84-20-246c0-226,9-260,85-336c75-75,142-98,263-90l92,5v-83
		c0-101-4-112-42-132c-39-20-79-2-93,44l-9,32h-140h-139l6-74c12-135,66-220,177-274c50-25,65-27,170-27c110,0,118,1,182,33
		c74,36,129,92,167,168c32,64,40,164,40,539c1,330-7,401-49,486c-53,104-127,163-247,194C6702,5421,6674,5422,6595,5410z M6718,5084
		c21-14,22-22,22-145c0-72-5-139-10-150c-14-24-76-26-102-2c-16,14-18,33-18,141c0,115,2,128,22,149C6657,5104,6686,5106,6718,5084z
		"/>
	<path class="st0" d="M5640,5243l5-158l70-2c39-1,76-2,83-2c9-1,12-116,12-540c0-422-3-540-12-544c-7-3,68-6,167-6s174,3,167,7
		c-10,7-12,150-10,705l3,697h-245h-245L5640,5243z"/>
	<path class="st0" d="M2614,4667c-17-51-5-201,24-309c16-59,34-114,41-122c9-11,10-16,2-16c-7,0-9-10-5-27c14-59,49-73,42-17l-4,35
		l27-29c15-16,36-47,48-70c18-35,20-48,11-84c-13-58-12-68,5-68c8,0,17-11,20-25s7-36,10-50s12-25,20-25s17-11,21-25
		c3-14,10-25,15-25s6-13,3-30c-7-31,3-39,24-18c16,16,15,47-3,78c-37,65-64,130-76,180c-7,30-17,58-21,61s-10,18-12,35
		c-5,38-16,64-27,64c-5,0-9,12-9,26c0,17-6,28-20,31c-11,3-20,9-20,14s-7,9-15,9c-17,0-21,40-5,56s1,124-16,124c-8,0-14,7-14,15
		s4,15,9,15c11,0-1,46-20,81c-8,13-14,35-15,49c-2,65-5,78-18,83C2626,4687,2618,4681,2614,4667z"/>
	<path class="st0" d="M8316,4525c-4-19-18-69-31-111c-13-41-22-81-19-89c3-7,1-16-5-20c-6-3-11-17-11-31c0-13-4-24-9-24
		s-12-20-15-45c-4-25-11-45-17-45c-5,0-9-15-9-34c0-22-25-87-70-180c-38-79-70-151-70-159c0-22-36-98-64-136c-15-19-26-41-26-48
		c0-8-7-16-15-20c-9-3-27-27-40-54c-14-26-29-50-35-54c-5-3-10-15-10-25s-9-25-19-32c-11-8-23-26-26-41c-4-15-11-27-16-27
		s-15-16-23-35s-20-35-26-35c-18,0-38-25-66-80c-18-37-30-50-41-46c-8,4-25-2-37-13c-71-64-90-83-105-110c-17-31-165-161-183-161
		c-6,0-8-11-6-25c3-16,1-25-7-25c-28,0-145-77-145-95c0-10-54-54-66-55c-7,0-15-7-18-15c-3-9-18-20-33-26c-16-5-39-25-53-43
		c-24-32-68-56-102-56c-9,0-18-6-21-14c-5-13-44-35-89-50c-10-3-18-12-18-21s-9-15-22-15c-11,0-36-11-54-25s-40-25-49-25
		c-15,0-71-33-85-50c-3-3-27-7-55-9c-35-2-58-10-79-27c-16-14-35-23-42-20c-8,3-14-1-14-9c0-19,9-19,80,5c94,32,160,59,243,101
		c43,21,84,39,92,39s15,4,15,9c0,4,28,23,63,40c88,45,221,131,260,169c18,18,38,32,43,32c19,0,124,81,124,96c0,7,5,14,11,14
		c37,0,312,262,407,389c83,109,99,133,118,166c9,17,34,53,56,82c21,29,38,59,38,66c0,8,7,20,16,28c8,7,27,36,41,63
		c14,28,34,62,44,75c11,13,19,30,19,37s27,69,61,136c59,120,99,219,99,246c0,7,9,32,20,55c21,43,86,279,94,339c2,18,7,50,11,71
		c4,20,5,37,2,37S8319,4544,8316,4525z"/>
	<path class="st0" d="M8235,4502c3-18,2-33-4-37c-6-3-11-29-11-56c0-47-2-50-29-55c-19-4-28-11-25-19c3-7,1-16-5-19c-6-4-8-13-4-21
		c8-22-16-75-32-69c-13,5-46-58-125-236c-23-52-48-100-56-106s-14-21-14-32c0-12-13-36-28-54c-16-18-37-49-47-68s-21-40-24-46
		s-25-39-48-72c-24-34-43-67-43-75s-16-27-35-41c-19-15-35-34-35-42c0-7-4-14-9-14s-31-30-57-67c-44-63-232-255-353-363
		c-28-25-51-49-51-55c-1-5-15-19-33-31c-25-16-31-26-29-48c2-18-3-33-15-42c-24-18-33-17-33,1c0,19-13,19-50,0c-23-12-30-22-30-45
		c0-17-4-30-10-30c-18,0-11-38,8-42c12-3,0-15-41-42c-52-33-60-36-70-22c-9,11-16,13-27,6c-13-9-13-12,3-24c16-13,10-18-70-62
		c-125-69-298-149-438-201c-119-45-160-57-325-93c-47-11-110-26-140-34s-111-20-180-26c-149-14-170-17-170-30c0-20,86-11,365,36
		c87,15,268,61,350,89c312,109,515,208,770,378c139,93,306,231,304,251c-3,25,2,36,16,36c8,0,15,6,15,13c0,8,4,7,10-3
		c5-8,10-12,11-7c6,31,20,55,35,61c18,7,18,1-2-19s-10-33,14-18c9,5,17,22,17,37c1,19,10,32,33,46c18,11,32,24,32,30s9,20,20,32
		s20,28,20,36s6,12,14,9c7-3,23,7,35,24c12,16,28,29,36,29s15,8,15,18c0,18,62,99,87,115c7,4,13,17,13,27c0,11,8,28,18,38
		c9,10,34,43,56,74c21,31,49,67,62,79s24,30,24,39s12,40,26,70c20,41,23,55,13,61c-8,4-10,12-5,16c4,4,14,0,21-11c12-16,16-17,29-4
		c21,22,116,217,116,239c0,11,6,22,14,25s17,25,21,50c3,24,19,75,35,113c34,83,50,153,56,248c4,48,2,73-6,78
		C8231,4530,8230,4524,8235,4502z"/>
	<path class="st0" d="M4592,3698c3-29,7-33,36-36l32-3v-145v-144h35h35l1,130c1,72,2,136,3,143c1,8,23,13,63,15l62,3l3-133l3-133
		l37-18c27-14,45-16,70-9c28,7,33,13,36,41c3,29,1,32-17,26c-12-3-30-3-41,0c-19,6-20,13-18,113l3,107l33,3c29,3,32,6,32,38v34h-206
		h-205L4592,3698z"/>
	<path class="st0" d="M5074,3716c-12-31,1-51,34-54l32-3v-145v-144h40h40v145v145h60h60v-121c0-66,5-129,10-139c12-23,64-39,108-32
		c29,4,32,8,32,37c0,31-2,33-32,31l-33-1l-3,113l-3,112h30c24,0,32,5,37,24c3,14,3,30-1,35c-4,7-76,11-206,11
		C5114,3730,5078,3727,5074,3716z"/>
	<path class="st0" d="M5555,3720c-4-6-3-116,1-245l7-235h33h34v66v66l35-6c38-7,125,23,125,43c0,6,5,11,10,11c6,0,10-12,10-26
		c0-23,3-25,38-22l37,3v175v175l-37,3l-38,3v-115c0-107-2-116-25-144c-43-51-122-54-144-6c-6,14-11,76-11,144v120h-34
		C5577,3730,5558,3725,5555,3720z"/>
	<path class="st0" d="M5960,3549v-180l38,3l37,3l3,142l3,142l97,3l97,3l3,33l3,32h-140h-141V3549z"/>
	<path class="st0" d="M3137,3453c-14-13-7-53,8-53c21,0,31-30,14-41c-18-11,6-53,73-128c26-30,48-59,48-63s5-8,10-8c6,0,39-28,73-62
		c63-62,89-85,214-188c96-79,269-200,286-200c4,0,24-12,42-26c19-14,41-24,50-22c14,2,13,7-7,26c-12,13-36,34-53,47
		c-25,21-28,26-15,34c20,13,17,16-136,119c-84,57-137,100-153,124c-26,40-41,41-41,4c0-16,12-32,35-47c34-24,44-39,25-39
		c-5,0-10,5-10,10c0,6-9,10-19,10c-27,0-115,86-107,105c7,18,37,20,54,3c9-9,12-9,12-1c0,11-29,34-75,59c-11,6-21,21-23,33
		c-4,22-17,28-27,11c-3-5,2-21,11-35c13-20,13-25,3-25c-20,0-139,109-139,126c0,8-11,26-25,40c-36,36-33,58,6,50c27-5,30-4,19,9
		c-7,8-22,15-34,15s-29,12-41,30c-11,16-23,30-27,30c-5,0-8,6-8,13C3180,3431,3146,3462,3137,3453z"/>
	<path class="st0" d="M3206,3067c-17-13-15-18,35-73c89-98,293-284,312-284c3,0,23-15,44-34c50-45,117-92,234-164
		c180-110,459-243,459-218c0,12-36,39-57,42c-7,1-24,12-39,23c-15,12-34,21-43,21s-27,9-41,20s-33,20-43,20c-9,0-27,11-38,24
		c-12,14-28,22-35,19c-8-3-21,0-29,7s-15,9-16,4c0-5-4,1-9,14c-6,14-18,22-34,22s-32,9-42,25c-9,14-19,23-22,20s-11,4-19,15
		s-20,17-28,14c-8-4-15-1-15,6s-8,9-19,5c-11-3-22-1-26,5s-18,15-31,20c-15,6-22,15-18,25c4,9,0,16-7,17c-8,0-19,2-26,2
		c-6,1-22,13-35,27c-14,15-36,34-51,44c-20,13-25,23-21,40c4,15,0,24-10,28c-9,4-16,2-16-3s-7-7-15-4c-8,4-15,12-15,20s-7,14-15,14
		s-15,9-15,19c0,13-9,21-30,26c-18,4-36,17-44,33c-13,25-148,172-158,172C3226,3080,3216,3074,3206,3067z"/>
	<path class="st0" d="M3935,2750c-7-11,40-44,94-66c33-13,46-25,58-55c17-42,33-51,33-18c0,34,25,16,26-19c1-18,3-34,5-35
		c20-16,81-36,93-31c9,3,23,0,32-7c20-16,78-39,119-46c16-3,35-12,43-19c10-11,17-11,32-1c11,6,20,15,20,20c0,4,4,6,9,3s7-15,4-26
		s-1-20,5-20s17-3,26-6c12-4,16,0,16,15c0,26,2,26,70,2c39-14,54-24,52-35c-3-17,24-23,30-7c2,6,25,5,58-1c56-10,84-24,75-38
		c-3-4,1-13,9-19c11-9,15-7,20,11c6,23,7,23,18,3c17-30,17-30,34-7c8,12,24,22,34,22c29,0,70-22,70-37c0-18,26-17,34,2
		c9,24,26,17,26-10c0-29,30-35,51-9c8,10,22,14,41,10c15-3,30-1,33,3c3,5,14,7,25,4s20-1,20,4c0,10-83,27-180,38
		c-126,14-476,100-555,135c-11,5-58,23-105,39c-85,29-184,71-270,116c-25,12-56,26-70,30s-32,13-40,20
		C4006,2736,3941,2760,3935,2750z"/>
</g>
</svg>
